# AST/ASF file generated using VICON BodyLanguage
# -----------------------------------------------
:version 1.10
:name VICON
:units
  mass 1.0
  length 0.45
  angle deg
:documentation
   .ast/.asf automatically generated from VICON data using
   VICON BodyBuilder and BodyLanguage model FoxedUp or BRILLIANT.MOD
:root
   order TX TY TZ RX RY RZ
   axis XYZ
   position 0 0 0  
   orientation 0 0 0 
:bonedata
  begin
     id 1 
     name lhipjoint
     direction 0.700308 -0.549349 0.455834 
     length 2.59063 
     axis 0 0 0  XYZ
  end
  begin
     id 2 
     name lfemur
     direction 0.34202 -0.939693 0  
     length 6.31066  
     axis 0 0 20  XYZ
    dof rx ry rz
    limits (-160.0 20.0)
           (-70.0 70.0)
           (-60.0 70.0)
  end
  begin
     id 3 
     name ltibia
     direction 0.34202 -0.939693 0   
     length 7.36093   
     axis 0 0 20   XYZ
    dof rx
    limits (-10.0 170.0)
  end
  begin
     id 4 
     name lfoot
     direction 0.0905332 -0.248738 0.96433   
     length 2.0233   
     axis -90 7.62852e-016 20   XYZ
    dof rx rz
    limits (-45.0 90.0)
           (-70.0 20.0)
  end
  begin
     id 5 
     name ltoes
     direction 1.53573e-011 -4.21855e-011 1   
     length 1.01524   
     axis -90 7.62852e-016 20   XYZ
    dof rx
    limits (-90.0 20.0)
  end
  begin
     id 6 
     name rhipjoint
     direction -0.61416 -0.607328 0.503944   
     length 2.34332  
     axis 0 0 0  XYZ 
  end
  begin
     id 7 
     name rfemur
     direction -0.34202 -0.939693 0   
     length 6.58548   
     axis 0 0 -20   XYZ
    dof rx ry rz
    limits (-160.0 20.0)
           (-70.0 70.0)
           (-70.0 60.0)
  end
  begin
     id 8 
     name rtibia
     direction -0.34202 -0.939693 0   
     length 7.20707   
     axis 0 0 -20   XYZ
    dof rx
    limits (-10.0 170.0)
 end
 begin
     id 9 
     name rfoot
     direction -0.136772 -0.375778 0.916561   
     length 1.92184  
     axis -90 -7.62852e-016 -20   XYZ
    dof rx rz
    limits (-45.0 90.0)
           (-20.0 70.0)
  end
  begin
     id 10 
     name rtoes
     direction -1.53535e-011 -4.21828e-011 1   
     length 0.951089   
     axis -90 -7.62852e-016 -20   XYZ
    dof rx
    limits (-90.0 20.0)
  end
  begin
     id 11 
     name lowerback
     direction -0.0444974 0.988086 -0.147332   
     length 1.9609   
     axis 0 0 0   XYZ
    dof rx ry rz
    limits (-20.0 45.0)
           (-30.0 30.0)
           (-30.0 30.0)
  end
  begin
     id 12 
     name upperback
     direction 0.00613146 0.999513 0.0306081   
     length 1.94944   
     axis 0 0 0   XYZ
    dof rx ry rz
    limits (-20.0 45.0)
           (-30.0 30.0)
           (-30.0 30.0)
  end
  begin
     id 13 
     name thorax
     direction 0.0254621 0.994518 0.101418   
     length 2.0119   
     axis 0 0 0   XYZ
    dof rx ry rz
    limits (-20.0 45.0)
           (-30.0 30.0)
           (-30.0 30.0)
  end
  begin
     id 14 
     name lowerneck
     direction 0.0168698 0.977854 0.208608   
     length 1.6375   
     axis 0 0 0   XYZ
    dof rx ry rz
    limits (-20.0 45.0)
           (-30.0 30.0)
           (-30.0 30.0)
  end
  begin
     id 15 
     name upperneck
     direction -0.0283988 0.989338 -0.142843   
     length 1.6851   
     axis 0 0 0   XYZ
    dof rx ry rz
    limits (-20.0 45.0)
           (-30.0 30.0)
           (-30.0 30.0)
  end
  begin
     id 16
     name head
     direction -0.0129422 0.99741 -0.0707489  
     length 1.69029  
     axis 0 0 0   XYZ
    dof rx ry rz
    limits (-20.0 45.0)
           (-30.0 30.0)
           (-30.0 30.0)
  end
  begin
     id 17 
     name lclavicle
     direction 0.820295 0.564628 -0.0911715  
     length 3.16484  
     axis 0 0 0   XYZ
    dof ry rz
    limits (-20.0 10.0)
           (0.0 20.0)
  end
  begin
     id 18 
     name lhumerus
     direction 1 -4.48969e-011 1.00186e-027   
     length 5.17853   
     axis 180 -30 -90   XYZ
    dof rx ry rz
    limits (-60.0 90.0)
           (-90.0 90.0)
           (-90.0 90.0)
  end
  begin
     id 19
     name lradius
     direction 1 -4.48966e-011 -1.52922e-027   
     length 3.40399   
     axis 180 -30 -90   XYZ
    dof rx
    limits (-10.0 170.0)
  end
  begin
     id 20
     name lwrist
     direction 1 -4.48981e-011 -3.80893e-027   
     length 1.70199   
     axis 1.1049e-015 90 90   XYZ
    dof ry
    limits (-180.0 0.0)
 end
  begin
     id 21 
     name lhand
     direction 1 -4.48957e-011 -7.61786e-027   
     length 0.708964   
     axis 4.86085e-015 90 90   XYZ
    dof rx rz
    limits (-90.0 90.0)
           (-45.0 45.0)
  end
  begin
     id 22 
     name lfingers
     direction 1 -4.48929e-011 -1.52357e-026   
     length 0.571585   
     axis 9.7217e-015 90 90   XYZ
    dof rx
    limits (0.0 90.0)
  end
  begin
     id 23
     name lthumb
     direction 0.707107 -6.34905e-011 0.707107   
     length 0.820685   
     axis -90 45 2.85299e-015   XYZ
    dof rx rz
    limits (-45.0 45.0)
           (-45.0 45.0)
  end
  begin
     id 24 
     name rclavicle
     direction -0.858602 0.463947 -0.218075   
     length 3.35137  
     axis 0 0 0   XYZ 
    dof ry rz
    limits (-10.0 20.0)
           (-20.0 0.0)
  end
  begin
     id 25 
     name rhumerus
     direction -1 -4.48969e-011 -1.98511e-027  
     length 5.42351   
     axis 180 30 90   XYZ
    dof rx ry rz
    limits (-90.0 60.0)
           (-90.0 90.0)
           (-90.0 90.0)
  end
  begin
     id 26 
     name rradius
     direction -1 -4.48961e-011 -2.82624e-027   
     length 3.42066   
     axis 180 30 90   XYZ
    dof rx
    limits (-10.0 170.0)
  end
  begin
     id 27 
     name rwrist
     direction -1 -4.48966e-011 -3.80893e-027   
     length 1.71033   
     axis 1.1049e-015 -90 -90   XYZ
    dof ry
    limits (-180.0 0.0)
  end
  begin
     id 28
     name rhand
     direction -1 -4.48964e-011 -7.61786e-027   
     length 0.743608   
     axis 4.86085e-015 -90 -90   XYZ
    dof rx rz
    limits (-90.0 90.0)
           (-45.0 45.0)
  end
  begin
     id 29
     name rfingers
     direction -1 -4.48961e-011 -1.52357e-026   
     length 0.599516   
     axis 9.7217e-015 -90 -90   XYZ
    dof rx
    limits (0.0 90.0)
  end
  begin
     id 30
     name rthumb
     direction -0.707107 -6.34913e-011 0.707107   
     length 0.860789   
     axis -90 -45 -2.85299e-015   XYZ
    dof rx rz
    limits (-45.0 45.0)
           (-45.0 45.0)
  end
:hierarchy
  begin
    root lhipjoint rhipjoint lowerback
    lhipjoint lfemur
    lfemur ltibia
    ltibia lfoot
    lfoot ltoes
    rhipjoint rfemur
    rfemur rtibia
    rtibia rfoot
    rfoot rtoes
    lowerback upperback
    upperback thorax
    thorax lowerneck lclavicle rclavicle
    lowerneck upperneck
    upperneck head
    lclavicle lhumerus
    lhumerus lradius
    lradius lwrist
    lwrist lhand lthumb
    lhand lfingers
    rclavicle rhumerus
    rhumerus rradius
    rradius rwrist
    rwrist rhand rthumb
    rhand rfingers
  end

#!OML:ASF E:\mmandel\Project 1\Capture day 1\Session 2\Subject.ASF
:FULLY-SPECIFIED
:DEGREES
253
root -4.54161 1.66555 -1.3912 -77.1614 77.3289 13.6295
lowerback 43.9982 -4.45589 5.77635
upperback 16.9489 -0.372546 3.4059
thorax -1.57047 1.28403 0.801542
lowerneck -2.51941 -1.48634 2.74505
upperneck 43.2453 1.4348 -3.54713
head 15.8424 1.78533 -1.53721
rclavicle -1.82882e-014 -1.11319e-014
rhumerus 18.4961 32.7667 -55.568
rradius 34.2371
rwrist 7.32945
rhand 7.89423 30.7766
rfingers 7.12502
rthumb 33.1265 3.80313
lclavicle -1.82882e-014 -1.11319e-014
lhumerus 17.1081 -42.338 45.6501
lradius 29.1705
lwrist 17.1219
lhand -14.3457 -27.9183
lfingers 7.12502
lthumb 11.7957 1.72954
rfemur -19.7125 -32.4497 21.7786
rtibia 55.2587
rfoot 2.68433 -20.0483
rtoes 7.23034
lfemur -36.189 19.1819 8.16285
ltibia 84.0047
lfoot 16.1141 -6.9321
ltoes 6.82439
254
root -4.49617 1.62612 -1.38834 -77.4451 76.1231 17.0087
lowerback 50.1296 -4.59163 5.76289
upperback 16.0572 0.425436 3.12866
thorax -2.57361 1.80617 0.466545
lowerneck -2.60898 -1.50534 2.94978
upperneck 43.3901 1.36006 -3.47864
head 15.9396 1.79796 -1.55573
rclavicle 4.37326e-014 1.43125e-014
rhumerus 18.4281 32.6688 -55.4805
rradius 34.4608
rwrist 7.14782
rhand 7.88894 30.8896
rfingers 7.12502
rthumb 33.1214 3.91504
lclavicle 4.37326e-014 1.43125e-014
lhumerus 17.3148 -42.6366 45.1422
lradius 29.2794
lwrist 17.4104
lhand -14.1844 -27.8002
lfingers 7.12502
lthumb 11.9513 1.83865
rfemur -15.2947 -31.442 20.6072
rtibia 55.3033
rfoot 2.60548 -19.712
rtoes 7.43826
lfemur -31.7865 18.7896 10.8677
ltibia 83.9599
lfoot 15.2559 -7.92728
ltoes 5.90003
255
root -4.5347 1.66057 -1.39469 -77.7517 76.8422 13.8052
lowerback 46.0917 -4.58709 6.0661
upperback 16.9205 -0.0864915 3.179
thorax -2.09837 1.50974 0.331393
lowerneck -2.54878 -1.56143 3.05907
upperneck 43.5884 1.28305 -3.4401
head 16.0315 1.80155 -1.56863
rclavicle 9.54166e-015 -6.52014e-014
rhumerus 18.2089 32.7723 -55.2469
rradius 34.7039
rwrist 6.86697
rhand 7.72977 30.9387
rfingers 7.12502
rthumb 32.9701 3.93223
lclavicle 9.54166e-015 -6.52014e-014
lhumerus 17.331 -43.0585 44.8312
lradius 29.3824
lwrist 17.7566
lhand -14.094 -27.7328
lfingers 7.12502
lthumb 12.0384 1.9009
rfemur -19.2292 -32.0681 21.9011
rtibia 55.7518
rfoot 3.45435 -19.5361
rtoes 5.16133
lfemur -35.4782 18.9642 8.96893
ltibia 84.2273
lfoot 15.775 -7.12155
ltoes 5.23754
256
root -4.54551 1.68057 -1.39678 -78.7892 76.972 10.5142
lowerback 44.0937 -4.72189 6.52056
upperback 16.672 -0.3859 3.28457
thorax -1.88922 1.29881 0.303692
lowerneck -2.25141 -1.59447 3.00726
upperneck 43.5914 1.31346 -3.53048
head 15.9646 1.80407 -1.59346
rclavicle 4.77083e-015 -4.13472e-014
rhumerus 18.1028 33.0424 -54.9207
rradius 34.9262
rwrist 6.67025
rhand 7.75947 30.8445
rfingers 7.12502
rthumb 32.9983 3.84398
lclavicle 4.77083e-015 -4.13472e-014
lhumerus 16.9893 -43.3157 44.8215
lradius 29.4989
lwrist 17.9513
lhand -14.2912 -27.803
lfingers 7.12502
lthumb 11.8483 1.84184
rfemur -22.2214 -32.5038 23.4201
rtibia 56.1402
rfoot 3.44244 -19.4318
rtoes 5.95938
lfemur -38.5707 19.0783 8.05375
ltibia 84.5606
lfoot 16.3931 -6.66563
ltoes 4.75455
257
root -4.54417 1.68973 -1.39435 -79.2564 76.9268 9.46021
lowerback 43.7627 -4.82969 7
upperback 16.9229 -0.351147 3.05932
thorax -1.51406 1.38879 -0.183345
lowerneck -2.93601 -1.65664 3.34269
upperneck 43.6154 1.02664 -3.37535
head 16.1245 1.72702 -1.63127
rclavicle -2.94201e-014 -6.36111e-015
rhumerus 18.1813 32.1175 -54.9749
rradius 34.9737
rwrist 6.73798
rhand 7.89555 30.8441
rfingers 7.12502
rthumb 33.1277 3.87089
lclavicle -2.94201e-014 -6.36111e-015
lhumerus 18.0524 -43.503 43.64
lradius 29.5848
lwrist 18.1042
lhand -14.4755 -27.8026
lfingers 7.12502
lthumb 11.6706 1.85237
rfemur -23.1069 -32.5731 23.9332
rtibia 56.4772
rfoot 3.3917 -19.1617
rtoes 5.87206
lfemur -39.3777 19.044 7.92821
ltibia 84.7143
lfoot 16.4454 -6.55051
ltoes 5.23388
258
root -4.5418 1.69582 -1.39585 -79.2105 76.7693 9.1275
lowerback 43.8794 -4.80541 6.75387
upperback 16.9267 -0.400678 3.22065
thorax -1.54528 1.33657 0.129425
lowerneck -2.73666 -1.5477 2.98178
upperneck 43.5728 1.31242 -3.4487
head 16.0689 1.78187 -1.55895
rclavicle -7.95139e-015 -9.22361e-014
rhumerus 18.5139 32.5514 -54.4418
rradius 35.1234
rwrist 6.63541
rhand 7.81075 30.8396
rfingers 7.12502
rthumb 33.0471 3.84936
lclavicle -7.95139e-015 -9.22361e-014
lhumerus 17.3279 -43.0478 44.2049
lradius 29.4463
lwrist 18.0205
lhand -14.4589 -27.7937
lfingers 7.12502
lthumb 11.6866 1.86031
rfemur -23.8228 -32.8034 24.5591
rtibia 56.7309
rfoot 4.23895 -18.5296
rtoes 0.971473
lfemur -39.8606 19.1604 7.9915
ltibia 84.8418
lfoot 16.5237 -6.50948
ltoes 5.73541
